<svg xmlns="http://www.w3.org/2000/svg" width="500" height="500" fill="#000000"><path fill="#000000" d="M403.047 248.578c-16.078-12.109-38.985-16.953-38.985-16.953s19.376-11.234 27.297-22.469c7.938-11.234 11.891-28.625 12.547-37.656.656-9.031 2.203-46.906-27.312-68.703-22.828-16.86-48.985-23.563-84.125-25.734V.624h-47.125v75.531h-35.907V.625h-47.125v75.531H69.594v48.938h27.25c7.422 0 20.64.828 26.25 7.109 5.609 6.281 6.609 9.578 6.609 21.797v195.016c0 4.625-.875 10.343-4.844 14.093-3.968 3.75-7.922 4.625-17.406 4.625H79.266l-9.688 56.61h92.719v75.312h47.125v-75.312h35.906v75.312h47.125v-76.562c12.188-.719 23.531-1.641 30.172-2.5 13.437-1.75 43.828-5.282 72.234-25.094 28.407-19.813 34.797-50.875 35.454-82.156.671-31.266-11.235-52.641-27.297-64.75l.031-.016Zm-193.578-119.14s14.968-1.313 29.734-1.11c14.766.203 27.75.656 47.141 6.609 19.375 5.954 30.812 20.485 31.265 37.657.453 17.172-7.047 28.625-20.265 35.89-13.219 7.266-31.485 11.235-48.672 11.891-17.172.656-39.203 0-39.203 0v-90.937Zm105.484 225.281c-10.781 5.953-32.375 11.234-53.281 12.765-20.906 1.532-52.203.875-52.203.875V267.281s29.953-1.531 53.297 0c23.343 1.531 42.937 7.485 51.75 11.906 8.812 4.407 24.234 14.094 24.234 37.219s-13 32.375-23.781 38.313h-.016Z"/></svg>